Title                            : Drag Me to Hell
Year                             : 2009
Genre                            : Fantasy | Horror | Thriller
iMDB URL                         : http://www.imdb.com/title/tt1127180/
Awards                           : 1 nomination

Complete name                    : Drag.Me.to.Hell.2009.DVDRIP.XviD-ZEKTORM.avi
Format                           : AVI
File size                        : 701 MiB
Duration                         : 1h 38mn
Overall bit rate                 : 992 Kbps
Source                           : DVD NTSC

Video
Format                           : MPEG-4 Visual
Format profile                   : Streaming Video@L1
Codec ID                         : XVID
Codec ID/Hint                    : XviD
Duration                         : 1h 38mn
Bit rate                         : 875 Kbps
Width                            : 720 pixels
Height                           : 304 pixels
Display aspect ratio             : 2.35
Frame rate                       : 23.976 fps
Resolution                       : 24 bits
Colorimetry                      : 4:2:0
Scan type                        : Progressive
Bits/(Pixel*Frame)               : 0.167
Stream size                      : 619 MiB (88%)
Writing library                  : XviD

Audio
Format                           : MPEG Audio
Format version                   : Version 1
Format profile                   : Layer 3
Codec ID                         : 55
Codec ID/Hint                    : MP3
Duration                         : 1h 38mn
Bit rate mode                    : Variable
Bit rate                         : 104 Kbps
Minimum bit rate                 : 128 Kbps
Channel(s)                       : 2 channels
Sampling rate                    : 48.0 KHz
Resolution                       : 16 bits
Stream size                      : 73.4 MiB (10%)
Writing library                  : LAME3.98r
Encoding settings                : ABR
